<?xml version="1.0" encoding="utf-8"?>
<!-- Generator: Adobe Illustrator 13.0.0, SVG Export Plug-In . SVG Version: 6.00 Build 14948)  -->
<!DOCTYPE svg PUBLIC "-//W3C//DTD SVG 1.0//EN" "http://www.w3.org/TR/2001/REC-SVG-20010904/DTD/svg10.dtd">
<svg version="1.0" id="Layer_1" xmlns:svg="http://www.w3.org/2000/svg"
	 xmlns="http://www.w3.org/2000/svg" xmlns:xlink="http://www.w3.org/1999/xlink" x="0px" y="0px" width="327px" height="419px"
	 viewBox="75.5 -38.5 327 419" enable-background="new 75.5 -38.5 327 419" xml:space="preserve">
<g id="layer1">
	<path fill="#FF0000" d="M326.195,365.955c-21.313-7.268-60.938-46.296-79.713-78.513c-21.729-37.285-24.798-37.948-45.701-9.894
		c-6.463,8.676-10.801,11.541-13.771,9.095c-3.303-2.72-3.9-2.187-2.511,2.236c2.363,7.521-26.986,22.298-33.456,16.845
		c-3.466-2.922-4.219-1.804-3.61,5.365c0.424,4.979-1.659,10.395-4.629,12.034c-2.971,1.637-4.662,5.235-3.757,7.994
		c3.037,9.266-3.685,11.714-9.007,3.28c-4.952-7.846-5.147-7.745-4.298,2.215c0.535,6.277-1.738,11.762-5.709,13.779
		c-3.629,1.844-10.046,6.011-14.263,9.262c-4.215,3.25-9.562,4.31-11.882,2.355c-6.164-5.196-6.688-22.399-0.78-25.656
		c2.793-1.54,3.539-5.595,1.656-9.009c-2.754-4.995-0.199-9.321,13.064-22.117c11.118-10.727,15.619-17.331,13.819-20.275
		c-1.817-2.972,8.786-18.264,33.218-47.913c19.736-23.952,37.267-45.531,38.955-47.952c1.688-2.422,0.544-9.478-2.543-15.68
		c-3.087-6.203-12.133-32.894-20.102-59.312c-7.97-26.42-16.338-53.363-18.596-59.874C137.707,11.346,135.665,2.92,138.066-5.665
		c1.477-5.274,6.104-12.003,10.283-14.952c8.189-5.78,33.025,0.013,45.634,10.645c13.422,11.314,43.306,83.648,45.087,109.131
		c2.369,33.884,5.998,34.797,29.605,7.447c31.547-36.547,56.715-61.382,65.924-65.049c13.271-5.284,35.892-0.106,45.132,10.33
		c4.532,5.118,8.684,16.295,9.227,24.839c0.977,15.328,0.746,15.69-17.315,27.463c-11.883,7.744-32.341,28.074-58.303,57.938
		l-39.998,46.008l17.196,39.24c21.365,48.75,30.999,67.901,40.535,80.58c9.104,12.104,10.811,26.363,3.44,28.778
		c-3.27,1.072-3.33,2.104-0.151,2.574c2.919,0.433,4.976,3.025,4.569,5.763C338.528,367.808,332.797,368.207,326.195,365.955z"/>
</g>
</svg>
